<svg width="628" height="593" viewBox="0 0 628 593" fill="none" xmlns="http://www.w3.org/2000/svg">
<path d="M196.612 83.9508C196.612 130.457 214.597 208.876 146.683 293.648C80.3467 376.45 171.607 114.254 263.261 98.0256C370.398 79.0554 185.758 518.301 176.238 428.909C170.911 378.898 325.884 116.399 369.475 159.991C424.929 215.445 279.519 532.191 245.565 526.981C185.666 517.791 399.897 153.446 460.684 184.826C533.168 222.244 413.694 471.949 358.255 485.343C313.904 496.057 479.32 254.065 590.012 309.449" stroke="black" stroke-width="8" stroke-linecap="round"/>
<path d="M597.507 289.989C598.588 288.054 601.546 289.052 601.233 291.246L600.657 295.288C600.469 296.605 601.594 297.734 602.912 297.552L618.626 295.372C620.746 295.078 621.784 297.871 619.987 299.033L608.309 306.583C606.955 307.459 607.141 309.496 608.632 310.111L616.582 313.393C618.409 314.148 618.151 316.813 616.212 317.203L611.01 318.248C609.834 318.484 609.129 319.694 609.503 320.833L610.98 325.327C611.544 327.044 609.721 328.569 608.131 327.711L601.787 324.291C600.159 323.413 598.314 325.026 598.966 326.756L602.455 336.022C603.212 338.032 600.7 339.66 599.175 338.147L589.312 328.364C588.676 327.733 587.698 327.602 586.918 328.043L575.799 334.334C573.946 335.382 571.956 333.195 573.174 331.449L579.723 322.062C580.322 321.204 580.157 320.028 579.345 319.367L567.928 310.073C566.468 308.885 567.308 306.522 569.19 306.522H577.986C578.981 306.522 579.824 305.791 579.966 304.807L581.345 295.245C581.643 293.176 584.514 292.894 585.21 294.864L587.444 301.188C588.018 302.811 590.237 303 591.076 301.497L597.507 289.989Z" fill="#CD4631"/>
</svg>
